<svg xmlns="http://www.w3.org/2000/svg" aria-hidden="true" style="position:absolute;width:0;height:0;overflow:hidden"><defs><symbol id="icon-arrow" viewBox="0 0 32 32"><path fill="#ffc83d" d="M8.037 11.166 14.5 22.36c.825 1.43 2.175 1.43 3 0l6.463-11.195c.826-1.43.15-2.598-1.5-2.598H9.537c-1.65 0-2.326 1.169-1.5 2.599" style="fill:var(--color1, #ffc83d)"/></symbol><symbol id="icon-close" viewBox="0 0 32 32"><path fill="#ffc83d" d="m8.533 25.333-1.867-1.867 7.467-7.467-7.467-7.467 1.867-1.867L16 14.132l7.467-7.467 1.867 1.867-7.467 7.467 7.467 7.467-1.867 1.867L16 17.866z" style="fill:var(--color1, #ffc83d)"/></symbol><symbol id="icon-menu" viewBox="0 0 32 32"><path fill="#ffc83d" d="M4 24v-2h24v2zm0-7v-2h24v2zm0-7V8h24v2z" style="fill:var(--color1, #ffc83d)"/></symbol></defs></svg>